<?xml version="1.0" encoding="iso-8859-1"?>
<!-- Generator: Adobe Illustrator 18.1.1, SVG Export Plug-In . SVG Version: 6.00 Build 0)  -->
<svg xmlns="http://www.w3.org/2000/svg" xmlns:xlink="http://www.w3.org/1999/xlink" version="1.1" id="Capa_1" x="0px" y="0px" viewBox="0 0 26.075 26.075" style="enable-background:new 0 0 26.075 26.075;" xml:space="preserve" width="512px" height="512px">
<g>
	<g id="c104_arrow">
		<path d="M13.553,0.367l9.994,9.719c0,0,1.218,1.155-0.108,1.155c-1.324,0-4.531,0-4.531,0s0,0.778,0,1.973    c0,3.423,0,9.641,0,12.172c0,0,0.184,0.689-0.863,0.689c-1.043,0-9.532,0-10.28,0c-0.744,0-0.727-0.576-0.727-0.576    c0-2.463,0-8.896,0-12.2c0-1.07,0-1.77,0-1.77s-2.57,0-4.184,0s-0.397-1.208-0.397-1.208s8.791-9.08,9.742-10.032    C12.892-0.405,13.553,0.367,13.553,0.367z" fill="#FFFFFF"/>
	</g>
	<g id="Capa_1_71_">
	</g>
</g>
<g>
</g>
<g>
</g>
<g>
</g>
<g>
</g>
<g>
</g>
<g>
</g>
<g>
</g>
<g>
</g>
<g>
</g>
<g>
</g>
<g>
</g>
<g>
</g>
<g>
</g>
<g>
</g>
<g>
</g>
</svg>
