<?xml version="1.0" encoding="iso-8859-1"?>
<!-- Generator: Adobe Illustrator 18.1.1, SVG Export Plug-In . SVG Version: 6.00 Build 0)  -->
<svg xmlns="http://www.w3.org/2000/svg" xmlns:xlink="http://www.w3.org/1999/xlink" version="1.1" id="Capa_1" x="0px" y="0px" viewBox="0 0 303.936 303.936" style="enable-background:new 0 0 303.936 303.936;" xml:space="preserve" width="512px" height="512px">
<g>
	<g>
		<g>
			<path d="M195.061,75.936c0.321,1.071,1.447,1.686,2.518,1.371c1.061-0.315,1.67-1.447,1.349-2.518     l-10.378-35.077c-0.31-1.055-1.436-1.67-2.497-1.354c-1.066,0.321-1.686,1.441-1.371,2.502L195.061,75.936z" fill="#FFFFFF"/>
		</g>
		<g>
			<path d="M303.853,101.01c-0.321-1.072-1.447-1.681-2.518-1.365l-35.077,10.383     c-1.061,0.315-1.664,1.43-1.349,2.502c0.321,1.066,1.436,1.686,2.497,1.371l35.077-10.378     C303.554,103.213,304.169,102.082,303.853,101.01z" fill="#FFFFFF"/>
		</g>
		<g>
			<path d="M238.846,81.952c0.903,0.479,2.203,0.12,2.725-0.821l17.454-32.134     c0.267-0.484,0.321-1.033,0.163-1.561c-0.092-0.294-0.332-0.827-0.952-1.164c-0.658-0.354-1.251-0.256-1.55-0.169     c-0.299,0.092-0.843,0.332-1.18,0.957l-17.481,32.167c-0.343,0.642-0.261,1.224-0.169,1.512     C238.008,81.261,238.362,81.685,238.846,81.952z" fill="#FFFFFF"/>
		</g>
		<g>
			<path d="M296.418,171.13l-32.15-17.465c-0.653-0.354-1.246-0.267-1.545-0.179     c-0.294,0.092-0.838,0.332-1.18,0.968c-0.359,0.658-0.267,1.251-0.174,1.545c0.092,0.31,0.337,0.865,0.974,1.218l32.123,17.443     c1.273,0.707,2.023,0.5,2.741-0.81C297.734,172.855,297.386,171.658,296.418,171.13z" fill="#FFFFFF"/>
		</g>
		<g>
			<path d="M125.74,82.98l32.139,17.449c0.968,0.528,2.219,0.136,2.758-0.838     c0.326-0.593,0.228-1.191,0.141-1.49c-0.098-0.299-0.337-0.854-0.957-1.191l-32.167-17.476c-0.473-0.261-1.023-0.321-1.528-0.169     c-0.517,0.152-0.946,0.506-1.202,0.984C124.397,81.217,124.761,82.441,125.74,82.98z" fill="#FFFFFF"/>
		</g>
		<g>
			<path d="M213.097,88.843c21.658,0,39.281,17.617,39.281,39.281c0,9.6-3.519,18.357-9.268,25.183     c-7.299-1.588-15.061-1.871-23.045-0.375c-9.834-16.393-27.076-26.777-46.025-28.066     C175.704,104.736,192.537,88.843,213.097,88.843z M228,265.661H52.786C23.676,265.661,0,241.98,0,212.87     c0-27.119,20.309-49.691,47.249-52.498l2.42-0.566v-2.448c0-29.11,23.682-52.797,52.792-52.797     c19.95,0,37.976,11.09,47.048,28.936l1.023,2.007l2.159-0.625c4.852-1.409,9.801-2.121,14.707-2.121     c19.173,0,36.871,10.443,46.189,27.255l0.99,1.773l1.974-0.435c33.847-7.473,64.241,18.661,64.241,51.513     C280.792,241.98,257.11,265.661,228,265.661z" fill="#FFFFFF"/>
		</g>
	</g>
</g>
<g>
</g>
<g>
</g>
<g>
</g>
<g>
</g>
<g>
</g>
<g>
</g>
<g>
</g>
<g>
</g>
<g>
</g>
<g>
</g>
<g>
</g>
<g>
</g>
<g>
</g>
<g>
</g>
<g>
</g>
</svg>
